<svg width="400" height="400" viewBox="0 0 400 400" fill="none" xmlns="http://www.w3.org/2000/svg">
<path d="M200 0C310.45 0 400 89.55 400 200C400 310.45 310.45 400 200 400C89.55 400 0 310.46 0 200C0 89.54 89.54 0 200 0ZM200 325C216.566 325.002 232.967 321.71 248.25 315.318C263.533 308.925 277.393 299.558 289.024 287.761C300.655 275.965 309.825 261.974 316.001 246.602C322.177 231.23 325.236 214.784 325 198.22C324.05 130.9 269.1 76 201.78 75H200C166.848 75 135.054 88.1696 111.612 111.612C88.1696 135.054 75 166.848 75 200C91.4152 200 107.67 203.233 122.835 209.515C138.001 215.797 151.781 225.004 163.388 236.612C174.996 248.219 184.203 261.999 190.485 277.165C196.767 292.33 200 308.585 200 325Z" fill="#1679ED"/>
</svg>
